HIERARCHY
ROOT pelvis
{
  OFFSET 0 100 0
  CHANNELS 6 Xposition Yposition Zposition Zrotation Xrotation Yrotation
  JOINT pelvis_right_femur
  {
    OFFSET -10.78128 -3.44521 -0.5502486
    CHANNELS 3 Zrotation Xrotation Yrotation
    JOINT right_femur_tibia
    {
      OFFSET -0.8047443 -44.0398 -0.1307829
      CHANNELS 3 Zrotation Xrotation Yrotation
      JOINT right_tibia_foot
      {
        OFFSET 3.006224 -47.83518 -5
        CHANNELS 3 Zrotation Xrotation Yrotation
        End Site
        {
          OFFSET 0 -5 15
        }
      }
    }
  }
  JOINT pelvis_left_femur
  {
    OFFSET 10.78128 -3.44521 -0.5502486
    CHANNELS 3 Zrotation Xrotation Yrotation
    JOINT left_femur_tibia
    {
      OFFSET 0.8047443 -44.0398 -0.1307829
      CHANNELS 3 Zrotation Xrotation Yrotation
      JOINT left_tibia_foot
      {
        OFFSET -4.370144 -48.10324 -4.275266
        CHANNELS 3 Zrotation Xrotation Yrotation
        End Site
        {
          OFFSET 0 -5 15
        }
      }
    }
  }
  JOINT pelvis_spine1
  {
    OFFSET 0 6.468898 -3.129235
    CHANNELS 3 Zrotation Xrotation Yrotation
    JOINT spine1
    {
      OFFSET 0 23.15396 4.99043
      CHANNELS 3 Zrotation Xrotation Yrotation
      JOINT spine2
      {
        OFFSET 0 20.79997 -5.064912
        CHANNELS 3 Zrotation Xrotation Yrotation
        JOINT neck
        {
          OFFSET 0 14.38658 9.616178
          CHANNELS 3 Zrotation Xrotation Yrotation
          End Site
          {
            OFFSET 0 20 0
          }
        }
      }
      JOINT right_manubrium
      {
        OFFSET -5.722621 16.35077 3.967754
        CHANNELS 3 Zrotation Xrotation Yrotation
        JOINT right_clavicle
        {
          OFFSET -13.16364 1.694482 -4.693211
          CHANNELS 3 Zrotation Xrotation Yrotation
          JOINT right_humerus
          {
            OFFSET -28.5034 -0.3100689 -2.792744
            CHANNELS 3 Zrotation Xrotation Yrotation
            JOINT right_radius
            {
              OFFSET -25.15693 0.02248979 -1.271978
              CHANNELS 3 Zrotation Xrotation Yrotation
              End Site
              {
                OFFSET -15 0 0
              }
            }
          }
        }
      }
      JOINT left_manubrium
      {
        OFFSET 5.722621 16.35077 3.967754
        CHANNELS 3 Zrotation Xrotation Yrotation
        JOINT left_clavicle
        {
          OFFSET 13.16364 1.694482 -4.693211
          CHANNELS 3 Zrotation Xrotation Yrotation
          JOINT left_humerus
          {
            OFFSET 29.39168 -1.063119 -2.237045
            CHANNELS 3 Zrotation Xrotation Yrotation
            JOINT left_radius
            {
              OFFSET 24.59957 -0.9528479 0.9047498
              CHANNELS 3 Zrotation Xrotation Yrotation
              End Site
              {
                OFFSET 15 -0 -0
              }
            }
          }
        }
      }
    }
  }
}
MOTION
Frames: 19
Frame Time: 0.0416666666667
-2069.843 86.44754 1719.778 -10.62614 7.171893 -125.6295 4.39174 3.758181 -9.986438 -0 17.1164 -0 -20.87272 12.03013 5.493974 -0.7574952 -5.792694 -1.864463 -0 23.44138 -0 10.80744 -3.254768 16.05805 0.5292962 -4.027925 4.581248 -1.970387 18.67458 -4.377733 1.225236 22.99047 3.485241 3.386734 -16.87078 3.370216 -6.10229 -26.14705 11.86075 96.62765 8.485461 -13.28777 -0 0 12.65249 -31.33159 8.765908 16.20228 5.916735 -29.63523 -12.0728 -88.98306 -1.12306 21.05197 0 0 -11.3538 25.90326 13.82615 -18.32174
-2075.972 86.48166 1716.119 -10.5891 7.226767 -125.925 4.39173 3.758551 -9.98637 -0 17.11658 -0 -20.87262 12.02994 5.493965 -0.757456 -5.793059 -1.864491 -0 23.44096 -0 10.80743 -3.254754 16.05815 0.529271 -4.027917 4.581296 -1.970407 18.67454 -4.377686 1.225236 22.99046 3.485246 3.386728 -16.87078 3.370228 -6.102265 -26.14713 11.86074 96.62752 8.485542 -13.2876 -0 0 12.6527 -31.33159 8.765898 16.20233 5.916726 -29.63512 -12.07275 -88.98314 -1.122966 21.05216 0 0 -11.35362 25.90312 13.82618 -18.32157
-2082.082 86.51577 1712.428 -10.55179 7.281455 -126.2205 4.391706 3.758866 -9.986317 -0 17.11683 -0 -20.87254 12.02983 5.493963 -0.7574364 -5.793348 -1.864526 -0 23.44055 -0 10.80744 -3.254752 16.05825 0.5292429 -4.02791 4.581332 -1.970429 18.67451 -4.377643 1.225236 22.99046 3.485253 3.386724 -16.87079 3.370241 -6.102243 -26.14719 11.86073 96.62741 8.485602 -13.28745 -0 0 12.65288 -31.33161 8.765883 16.20238 5.916718 -29.63502 -12.0727 -88.98321 -1.122892 21.05231 0 0 -11.35344 25.90301 13.82621 -18.32144
-2088.172 86.54988 1708.706 -10.5142 7.335956 -126.5161 4.391672 3.759108 -9.986281 -0 17.11714 -0 -20.87247 12.02978 5.493967 -0.7574367 -5.793545 -1.864565 -0 23.44018 -0 10.80745 -3.254761 16.05832 0.5292141 -4.027906 4.581354 -1.970451 18.67449 -4.377607 1.225237 22.99046 3.485261 3.386721 -16.87078 3.370254 -6.102228 -26.14723 11.86073 96.62734 8.485638 -13.28733 -0 0 12.65301 -31.33164 8.765863 16.20242 5.916712 -29.63494 -12.07267 -88.98325 -1.122842 21.05242 0 0 -11.35329 25.90294 13.82623 -18.32135
-2094.243 86.58398 1704.952 -10.47633 7.390269 -126.8118 4.391629 3.759263 -9.986264 -0 17.11748 -0 -20.87243 12.0298 5.493977 -0.7574558 -5.793641 -1.864605 -0 23.43987 -0 10.80748 -3.254782 16.05838 0.5291866 -4.027906 4.58136 -1.970473 18.67448 -4.377579 1.225239 22.99047 3.48527 3.386722 -16.87077 3.370266 -6.102219 -26.14726 11.86072 96.6273 8.48565 -13.28725 -0 0 12.65309 -31.33167 8.765842 16.20246 5.916707 -29.63488 -12.07266 -88.98328 -1.122819 21.05249 0 0 -11.35317 25.9029 13.82624 -18.32131
-2100.295 86.61808 1701.166 -10.43819 7.444394 -127.1075 4.391582 3.759326 -9.986267 -0 17.11782 -0 -20.87242 12.02989 5.493991 -0.7574917 -5.793634 -1.864644 -0 23.43963 -0 10.80751 -3.254811 16.05842 0.529162 -4.027908 4.581351 -1.970492 18.67447 -4.377562 1.225241 22.99048 3.485278 3.386724 -16.87076 3.370276 -6.102217 -26.14726 11.86071 96.6273 8.485638 -13.2872 -0 0 12.65312 -31.33171 8.76582 16.20249 5.916705 -29.63485 -12.07267 -88.98328 -1.122824 21.0525 0 0 -11.35309 25.9029 13.82624 -18.32131
-2106.327 86.6522 1697.349 -10.39977 7.498327 -127.4032 4.391533 3.759296 -9.986287 -0 17.11814 -0 -20.87243 12.03004 5.494008 -0.7575409 -5.79353 -1.864678 -0 23.43949 -0 10.80755 -3.254846 16.05844 0.529142 -4.027912 4.581329 -1.970508 18.67448 -4.377555 1.225243 22.99049 3.485286 3.386728 -16.87074 3.370283 -6.102222 -26.14725 11.86071 96.62734 8.485603 -13.28719 -0 0 12.65308 -31.33175 8.765798 16.2025 5.916705 -29.63485 -12.07268 -88.98326 -1.122854 21.05246 0 0 -11.35304 25.90293 13.82624 -18.32136
-2112.338 86.68633 1693.501 -10.36106 7.552067 -127.6991 4.391487 3.75918 -9.986323 -0 17.11843 -0 -20.87247 12.03023 5.494028 -0.7575996 -5.793341 -1.864705 -0 23.43944 -0 10.80759 -3.254885 16.05843 0.5291277 -4.027919 4.581295 -1.97052 18.6745 -4.377559 1.225245 22.9905 3.485293 3.386733 -16.87072 3.370288 -6.102232 -26.14722 11.8607 96.6274 8.485549 -13.28723 -0 0 12.653 -31.33179 8.765779 16.2025 5.916707 -29.63488 -12.07272 -88.98323 -1.122905 21.05238 0 0 -11.35304 25.903 13.82622 -18.32144
-2118.33 86.72048 1689.621 -10.32207 7.60561 -127.995 4.391445 3.75899 -9.986372 -0 17.11866 -0 -20.87253 12.03044 5.494048 -0.7576632 -5.793084 -1.864725 -0 23.43949 -0 10.80762 -3.254924 16.0584 0.5291197 -4.027927 4.581252 -1.970526 18.67452 -4.377574 1.225247 22.99052 3.485298 3.38674 -16.8707 3.37029 -6.102248 -26.14717 11.8607 96.62749 8.485482 -13.2873 -0 0 12.65288 -31.33183 8.765763 16.2025 5.916711 -29.63493 -12.07276 -88.98318 -1.122975 21.05226 0 0 -11.35308 25.90309 13.8262 -18.32156
-2124.301 86.75466 1685.71 -10.2828 7.658955 -128.2909 4.391411 3.758743 -9.98643 -0 17.11882 -0 -20.8726 12.03067 5.494068 -0.7577272 -5.79278 -1.864736 -0 23.43962 -0 10.80766 -3.254962 16.05835 0.5291184 -4.027937 4.581204 -1.970527 18.67455 -4.377596 1.225249 22.99053 3.485301 3.386747 -16.87068 3.370289 -6.102267 -26.14711 11.8607 96.6276 8.485405 -13.28739 -0 0 12.65273 -31.33186 8.765751 16.20248 5.916717 -29.63499 -12.07281 -88.98311 -1.123056 21.05212 0 0 -11.35316 25.90321 13.82618 -18.3217
-2130.253 86.78885 1681.768 -10.24324 7.712099 -128.5869 4.391387 3.758459 -9.986492 -0 17.1189 -0 -20.87268 12.0309 5.494086 -0.7577873 -5.792451 -1.864738 -0 23.43983 -0 10.80769 -3.254995 16.05829 0.5291234 -4.027946 4.581155 -1.970523 18.67458 -4.377626 1.225251 22.99055 3.485303 3.386754 -16.87067 3.370285 -6.102289 -26.14705 11.8607 96.62771 8.485325 -13.28751 -0 0 12.65255 -31.33188 8.765745 16.20245 5.916724 -29.63507 -12.07286 -88.98305 -1.123144 21.05196 0 0 -11.35326 25.90333 13.82615 -18.32184
-2136.183 86.82307 1677.796 -10.2034 7.765038 -128.883 4.391374 3.758158 -9.986553 -0 17.11891 -0 -20.87276 12.03111 5.4941 -0.7578396 -5.792122 -1.864731 -0 23.44009 -0 10.80771 -3.255021 16.05822 0.5291342 -4.027955 4.581107 -1.970515 18.67462 -4.377659 1.225252 22.99056 3.485302 3.386761 -16.87066 3.370279 -6.102311 -26.14699 11.8607 96.62783 8.485247 -13.28764 -0 0 12.65237 -31.33189 8.765743 16.20242 5.916731 -29.63516 -12.07291 -88.98297 -1.12323 21.0518 0 0 -11.35339 25.90345 13.82613 -18.32199
-2142.093 86.85731 1673.792 -10.16326 7.81777 -129.1792 4.391371 3.757861 -9.986611 -0 17.11884 -0 -20.87284 12.03128 5.494111 -0.7578808 -5.791813 -1.864716 -0 23.44039 -0 10.80772 -3.25504 16.05815 0.5291496 -4.027963 4.581064 -1.970503 18.67465 -4.377695 1.225253 22.99057 3.4853 3.386767 -16.87065 3.370271 -6.102332 -26.14693 11.86071 96.62794 8.485176 -13.28777 -0 0 12.6522 -31.33189 8.765747 16.20238 5.916738 -29.63525 -12.07296 -88.98291 -1.123311 21.05164 0 0 -11.35352 25.90357 13.8261 -18.32213
-2147.981 86.89156 1669.758 -10.12284 7.870293 -129.4754 4.39138 3.75759 -9.986661 -0 17.1187 -0 -20.87292 12.03142 5.494117 -0.7579088 -5.791547 -1.864694 -0 23.4407 -0 10.80773 -3.25505 16.05807 0.5291685 -4.027969 4.581029 -1.970488 18.67468 -4.377729 1.225253 22.99057 3.485296 3.386772 -16.87064 3.370262 -6.102351 -26.14687 11.86071 96.62804 8.485118 -13.2879 -0 0 12.65204 -31.33189 8.765754 16.20234 5.916745 -29.63534 -12.073 -88.98285 -1.12338 21.05151 0 0 -11.35366 25.90367 13.82608 -18.32225
-2153.849 86.92582 1665.693 -10.08212 7.922603 -129.7718 4.391398 3.75736 -9.986699 -0 17.11851 -0 -20.87298 12.0315 5.494118 -0.7579223 -5.791337 -1.864668 -0 23.441 -0 10.80773 -3.255051 16.05801 0.5291893 -4.027974 4.581003 -1.970472 18.6747 -4.377761 1.225253 22.99058 3.485291 3.386775 -16.87064 3.370253 -6.102367 -26.14683 11.86072 96.62811 8.485075 -13.28801 -0 0 12.65191 -31.33188 8.765766 16.2023 5.91675 -29.63541 -12.07303 -88.9828 -1.123434 21.05139 0 0 -11.35379 25.90375 13.82606 -18.32234
-2159.695 86.96008 1661.598 -10.04112 7.9747 -130.0682 4.391424 3.757185 -9.986725 -0 17.11828 -0 -20.87302 12.03153 5.494115 -0.7579211 -5.791197 -1.864639 -0 23.44128 -0 10.80771 -3.255043 16.05795 0.5292106 -4.027977 4.580988 -1.970455 18.67472 -4.377787 1.225252 22.99057 3.485285 3.386776 -16.87064 3.370243 -6.102378 -26.1468 11.86072 96.62817 8.485049 -13.2881 -0 0 12.65182 -31.33186 8.76578 16.20227 5.916755 -29.63547 -12.07305 -88.98277 -1.123469 21.05131 0 0 -11.3539 25.90381 13.82604 -18.32241
-2165.521 86.99435 1657.472 -9.999837 8.026582 -130.3647 4.391456 3.757075 -9.986736 -0 17.11803 -0 -20.87305 12.03151 5.494108 -0.757906 -5.791131 -1.86461 -0 23.44151 -0 10.8077 -3.255027 16.05791 0.5292309 -4.027977 4.580984 -1.970439 18.67473 -4.377807 1.225251 22.99057 3.485279 3.386776 -16.87065 3.370235 -6.102384 -26.14678 11.86073 96.62819 8.485041 -13.28816 -0 0 12.65176 -31.33183 8.765796 16.20225 5.916758 -29.63551 -12.07306 -88.98275 -1.123485 21.05127 0 0 -11.35399 25.90383 13.82604 -18.32244
-2171.324 87.02861 1653.316 -9.958269 8.078247 -130.6613 4.391491 3.757033 -9.986734 -0 17.11778 -0 -20.87306 12.03144 5.494097 -0.7578787 -5.791141 -1.864581 -0 23.44168 -0 10.80767 -3.255006 16.05788 0.5292489 -4.027975 4.580991 -1.970425 18.67473 -4.37782 1.225249 22.99056 3.485273 3.386775 -16.87066 3.370227 -6.102385 -26.14678 11.86073 96.62819 8.485052 -13.28819 -0 0 12.65175 -31.3318 8.765813 16.20223 5.91676 -29.63553 -12.07305 -88.98275 -1.12348 21.05126 0 0 -11.35405 25.90383 13.82604 -18.32243
-2177.106 87.06287 1649.13 -9.916422 8.129695 -130.9579 4.391527 3.75706 -9.986718 -0 17.11754 -0 -20.87305 12.03133 5.494084 -0.7578417 -5.791223 -1.864557 -0 23.44178 -0 10.80764 -3.254979 16.05787 0.5292634 -4.027972 4.581009 -1.970414 18.67472 -4.377824 1.225248 22.99055 3.485267 3.386771 -16.87068 3.370222 -6.102381 -26.14679 11.86074 96.62816 8.485078 -13.28819 -0 0 12.65177 -31.33177 8.765829 16.20222 5.916759 -29.63553 -12.07304 -88.98276 -1.123457 21.05129 0 0 -11.35407 25.9038 13.82604 -18.3224
